# xmcd
#
# Track frame offsets: 
#        150
#        22448
#        40583
#        58398
#        89473
#        103083
#        124425
#        140033
#        154655
#
# Disc length: 2524 seconds
#
# Revision: 5
# Processed by: cddbd v1.5.2PL0 Copyright (c) Steve Scherf et al.
# Submitted via: ExactAudioCopyFreeDBPlugin 1.0
#
DISCID=8709da09
DTITLE=Alabama - Just Us
DYEAR=1987
DGENRE=Country
TTITLE0=Tar Top
TTITLE1=I Can't Stop
TTITLE2=I Saw The Time
TTITLE3=You're My Explanation For Living 
TTITLE4=Face To Face
TTITLE5=(I Wish It Could Always Be) '55
TTITLE6=Old Man
TTITLE7=If I Could Just See You Now
TTITLE8=Fallin' Again
EXTD=YEAR: 1987
EXTT0=
EXTT1=
EXTT2=
EXTT3=
EXTT4=
EXTT5=
EXTT6=
EXTT7=
EXTT8=
PLAYORDER=
